<svg width="473.45px" height="147.85454711914062px" xmlns="http://www.w3.org/2000/svg" viewBox="13.275000000000006 1.0727264404296903 473.45 147.85454711914062" style="background: rgb(253, 253, 253);" preserveAspectRatio="xMidYMid"><defs><filter id="editing-extrusion" x="-100%" y="-100%" width="300%" height="300%"><feFlood result="color1" flood-color="#27ba50"></feFlood><feConvolveMatrix order="8,8" divisor="1" kernelMatrix="1 0 0 0 0 0 0 0 0 1 0 0 0 0 0 0 0 0 1 0 0 0 0 0 0 0 0 1 0 0 0 0 0 0 0 0 1 0 0 0 0 0 0 0 0 1 0 0 0 0 0 0 0 0 1 0 0 0 0 0 0 0 0 1" in="SourceAlpha" result="extrude"></feConvolveMatrix><feComposite in="color1" in2="extrude" result="comp-extrude" operator="in"></feComposite><feOffset dx="4" dy="4" in="comp-extrude" result="offset-extrude"></feOffset><feMerge><feMergeNode in="offset-extrude"></feMergeNode><feMergeNode in="SourceGraphic"></feMergeNode></feMerge></filter></defs><g filter="url(#editing-extrusion)"><g transform="translate(82.9599916934967, 102.99999618530273)"><path d="M12.35 0L2.43 0L2.43-54.98L19.20-54.98L23.81-21.44L28.42-54.98L45.31-54.98L45.31 0L35.26 0L35.26-39.62L28.93 0L19.07 0L12.35-39.62L12.35 0ZM72.90 0L50.18 0L50.18-54.98L72.19-54.98L72.19-44.35L61.38-44.35L61.38-33.66L71.74-33.66L71.74-23.30L61.38-23.30L61.38-10.69L72.90-10.69L72.90 0ZM87.87 0.51L87.87 0.51Q81.92 0.51 79.01-3.68L79.01-3.68L79.01-3.68Q76.10-7.87 76.10-16.38L76.10-16.38L76.10-40.06L76.10-40.06Q76.10-47.68 79.49-51.58L79.49-51.58L79.49-51.58Q82.88-55.49 89.60-55.49L89.60-55.49L89.60-55.49Q95.04-55.49 98.05-53.31L98.05-53.31L98.05-53.31Q101.06-51.14 102.21-46.98L102.21-46.98L102.21-46.98Q103.36-42.82 103.36-36.29L103.36-36.29L92.61-36.29L92.61-41.22L92.61-41.22Q92.61-43.20 92.06-44.29L92.06-44.29L92.06-44.29Q91.52-45.38 90.11-45.38L90.11-45.38L90.11-45.38Q86.98-45.38 86.98-41.28L86.98-41.28L86.98-14.66L86.98-14.66Q86.98-12.16 87.62-10.88L87.62-10.88L87.62-10.88Q88.26-9.60 89.86-9.60L89.86-9.60L89.86-9.60Q91.46-9.60 92.10-10.88L92.10-10.88L92.10-10.88Q92.74-12.16 92.74-14.66L92.74-14.66L92.74-22.53L89.79-22.53L89.79-32L103.23-32L103.23 0L98.82 0L96.96-4.61L96.96-4.61Q94.02 0.51 87.87 0.51L87.87 0.51ZM116.80 0L106.11 0L111.42-54.98L130.05-54.98L135.30 0L124.86 0L124.10-8.90L117.44-8.90L116.80 0ZM120.32-45.63L118.27-17.66L123.26-17.66L120.83-45.63L120.32-45.63ZM161.34 0L138.62 0L138.62-54.98L160.64-54.98L160.64-44.35L149.82-44.35L149.82-33.66L160.19-33.66L160.19-23.30L149.82-23.30L149.82-10.69L161.34-10.69L161.34 0ZM174.21 0L163.52 0L168.83-54.98L187.46-54.98L192.70 0L182.27 0L181.50-8.90L174.85-8.90L174.21 0ZM177.73-45.63L175.68-17.66L180.67-17.66L178.24-45.63L177.73-45.63ZM196.03 0L196.03-54.98L212.93-54.98L212.93-54.98Q216.96-54.98 219.17-53.15L219.17-53.15L219.17-53.15Q221.38-51.33 222.14-48.03L222.14-48.03L222.14-48.03Q222.91-44.74 222.91-39.62L222.91-39.62L222.91-39.62Q222.91-34.94 221.70-32.32L221.70-32.32L221.70-32.32Q220.48-29.70 217.47-28.67L217.47-28.67L217.47-28.67Q219.97-28.16 221.09-26.18L221.09-26.18L221.09-26.18Q222.21-24.19 222.21-20.80L222.21-20.80L222.08 0L211.33 0L211.33-21.50L211.33-21.50Q211.33-23.81 210.43-24.45L210.43-24.45L210.43-24.45Q209.54-25.09 207.17-25.09L207.17-25.09L207.17 0L196.03 0ZM207.23-34.62L209.86-34.62L209.86-34.62Q212.16-34.62 212.16-39.62L212.16-39.62L212.16-39.62Q212.16-41.79 211.97-42.88L211.97-42.88L211.97-42.88Q211.78-43.97 211.26-44.38L211.26-44.38L211.26-44.38Q210.75-44.80 209.79-44.80L209.79-44.80L207.23-44.80L207.23-34.62ZM237.31 0L226.56 0L226.56-54.98L237.89-54.98L242.94-28.67L242.94-54.98L253.57-54.98L253.57 0L242.82 0L237.31-27.52L237.31 0ZM268.54 0L257.92 0L257.92-54.98L268.54-54.98L268.54 0ZM283.71 0L272.96 0L272.96-54.98L284.29-54.98L289.34-28.67L289.34-54.98L299.97-54.98L299.97 0L289.22 0L283.71-27.52L283.71 0ZM316.16 0.51L316.16 0.51Q310.21 0.51 307.30-3.68L307.30-3.68L307.30-3.68Q304.38-7.87 304.38-16.38L304.38-16.38L304.38-40.06L304.38-40.06Q304.38-47.68 307.78-51.58L307.78-51.58L307.78-51.58Q311.17-55.49 317.89-55.49L317.89-55.49L317.89-55.49Q323.33-55.49 326.34-53.31L326.34-53.31L326.34-53.31Q329.34-51.14 330.50-46.98L330.50-46.98L330.50-46.98Q331.65-42.82 331.65-36.29L331.65-36.29L320.90-36.29L320.90-41.22L320.90-41.22Q320.90-43.20 320.35-44.29L320.35-44.29L320.35-44.29Q319.81-45.38 318.40-45.38L318.40-45.38L318.40-45.38Q315.26-45.38 315.26-41.28L315.26-41.28L315.26-14.66L315.26-14.66Q315.26-12.16 315.90-10.88L315.90-10.88L315.90-10.88Q316.54-9.60 318.14-9.60L318.14-9.60L318.14-9.60Q319.74-9.60 320.38-10.88L320.38-10.88L320.38-10.88Q321.02-12.16 321.02-14.66L321.02-14.66L321.02-22.53L318.08-22.53L318.08-32L331.52-32L331.52 0L327.10 0L325.25-4.61L325.25-4.61Q322.30 0.51 316.16 0.51L316.16 0.51Z" fill="#326640"></path></g></g><style>text {
  font-size: 64px;
  font-family: Arial Black;
  dominant-baseline: central;
  text-anchor: middle;
}</style></svg>